<svg width="231" height="277" viewBox="0 0 231 277" fill="none" xmlns="http://www.w3.org/2000/svg">
<path d="M118.972 177.469C130.322 163.078 134.283 143.477 129.565 125.035C124.847 106.594 112.213 92.293 95.77 86.7801L56.1484 73.4918C49.5753 71.2869 42.6866 71.5009 36.2321 74.1082C29.7761 76.716 24.3603 81.474 20.5656 87.8683C16.7763 94.2646 14.9686 101.695 15.3371 109.355C15.7057 117.015 18.2198 124.186 22.6043 130.091L22.8997 130.486C33.7991 145.386 38.7067 164.824 36.3718 183.904C35.7702 188.826 36.0853 193.736 37.2812 198.411C37.9314 200.952 38.8437 203.426 40.0083 205.794C43.3175 212.515 48.3667 217.755 54.6111 220.949C60.853 224.139 67.7032 224.982 74.4194 223.384C81.1355 221.787 87.0832 217.901 91.6233 212.147L118.972 177.469Z" fill="white" fill-opacity="0.03"/>
<path d="M91.3303 69.243C95.6085 75.5945 102.141 79.3714 109.725 79.8771C116.942 80.3594 124.292 77.7838 130.422 72.6226C136.546 67.4611 140.786 60.2767 142.361 52.3916C144.014 44.1091 142.567 36.0521 138.288 29.7139C129.69 16.9584 112.158 15.4442 99.1985 26.3428C88.8882 35.0353 84.5521 49.0137 87.5635 60.7842C88.3324 63.7897 89.5807 66.6512 91.3303 69.243Z" fill="white" fill-opacity="0.03"/>
<path d="M129.472 107.401C134.055 125.315 152.646 135.144 170.913 129.309C189.185 123.474 200.321 104.151 195.738 86.2361C191.155 68.323 172.562 58.4971 154.29 64.3329C136.022 70.1673 124.889 89.4874 129.472 107.401Z" fill="white" fill-opacity="0.03"/>
<path d="M135.688 166.11L135.688 166.112C135.575 169.129 135.903 172.066 136.619 174.865C139.961 187.93 151.73 197.944 166.052 198.625C174.297 199.018 182.211 196.292 188.335 190.948C194.746 185.356 198.454 177.602 198.777 169.112C199.1 160.622 195.992 152.544 190.029 146.363C184.333 140.459 176.655 136.994 168.411 136.604C151.019 135.779 136.34 149.015 135.688 166.11Z" fill="white" fill-opacity="0.03"/>
<path d="M157.057 233.293L157.06 233.287C162.067 218.324 153.8 200.978 138.626 194.618C123.448 188.27 107.017 195.269 101.999 210.215C100.167 215.667 100.101 221.438 101.493 226.878C103.919 236.36 110.775 244.842 120.428 248.893C135.605 255.239 152.036 248.242 157.057 233.293Z" fill="white" fill-opacity="0.03"/>
</svg>
