<svg width="26" height="32" viewBox="0 0 26 32" fill="none" xmlns="http://www.w3.org/2000/svg">
<path d="M6.25 8.125H10.75M6.25 16H19.75M6.25 20.5H19.75M6.25 25H10.75M4 30.625H22C22.5967 30.625 23.169 30.3879 23.591 29.966C24.0129 29.544 24.25 28.9717 24.25 28.375V3.625C24.25 3.02826 24.0129 2.45597 23.591 2.03401C23.169 1.61205 22.5967 1.375 22 1.375H4C3.40326 1.375 2.83097 1.61205 2.40901 2.03401C1.98705 2.45597 1.75 3.02826 1.75 3.625V28.375C1.75 28.9717 1.98705 29.544 2.40901 29.966C2.83097 30.3879 3.40326 30.625 4 30.625Z" stroke="#FF6F73" stroke-width="2" stroke-linecap="round" stroke-linejoin="round"/>
<path d="M19.75 8.6875C20.0607 8.6875 20.3125 8.43566 20.3125 8.125C20.3125 7.81434 20.0607 7.5625 19.75 7.5625C19.4393 7.5625 19.1875 7.81434 19.1875 8.125C19.1875 8.43566 19.4393 8.6875 19.75 8.6875Z" fill="#FF6F73" stroke="#FF6F73" stroke-width="0.5"/>
</svg>
