<svg width="74" height="48" viewBox="0 0 74 48" fill="none" xmlns="http://www.w3.org/2000/svg">
<path d="M69.8312 20.2717C69.7517 17.2835 66.4648 14.5428 60.5315 12.5021C60.937 11.682 61.1538 10.7925 61.1538 9.88054C61.1538 6.34622 58.0018 3.47226 54.1282 3.47226C53.2552 3.47226 52.4037 3.61956 51.5894 3.91084C50.2852 2.45607 48.132 1.56814 45.8423 1.56814C44.8046 1.56814 43.7735 1.7502 42.8359 2.09775C41.2049 0.760487 38.9781 0 36.6569 0C33.528 0 30.688 1.3414 29.1331 3.52687C25.4548 3.12884 22.1654 4.78635 20.9101 7.39303C17.8259 7.44765 15.2937 9.54623 14.9064 12.2423C8.47829 14.3094 4.91004 17.147 4.82646 20.27L0.956994 35.4152L0.937134 35.5733C0.937134 42.5476 16.9223 48.01 37.3296 48.01C57.7362 48.01 73.7221 42.5467 73.7221 35.5733L69.8312 20.2717ZM21.0325 8.67237C21.0847 8.67237 21.1376 8.67568 21.1898 8.67899L21.7583 8.70547L21.9229 8.27351C22.7124 6.20058 25.2595 4.75243 28.1161 4.75243C28.5182 4.75243 28.9328 4.7847 29.3499 4.84594L29.7645 4.90634L29.9863 4.55134C31.2474 2.53385 33.8028 1.28017 36.656 1.28017C38.8117 1.28017 40.8631 2.01997 42.2807 3.31006L42.586 3.58728L42.9642 3.42426C43.8405 3.04691 44.8344 2.84748 45.8415 2.84748C47.9309 2.84748 49.8607 3.69486 50.8777 5.05861L51.1781 5.46326L51.6424 5.26383C52.431 4.92372 53.2668 4.7516 54.1282 4.7516C57.2976 4.7516 59.8737 7.05292 59.8737 9.88054C59.8737 10.8082 59.5824 11.7044 59.0528 12.4963L59.0511 12.498C59.0495 12.4996 59.0478 12.5021 59.0461 12.5046C59.0056 12.5642 58.975 12.6271 58.9328 12.6858L58.9022 12.7272L58.2848 13.5522L58.2964 13.5531L59.3614 13.6987C61.8647 14.0413 63.6819 15.2379 63.6819 16.5437C63.6819 17.329 63.024 17.9323 62.5068 18.2856C62.4241 18.3419 62.3454 18.3932 62.2726 18.4371L61.2349 19.0602L62.3339 19.5658C63.4585 20.083 64.1296 20.9204 64.1296 21.8075C64.1296 23.1299 61.5452 24.5284 59.1032 24.5284H58.9981L58.898 24.5623C57.7842 24.9397 56.6306 25.2707 55.4539 25.5785C50.4549 26.881 44.908 27.5521 38.8887 27.5521C28.5919 27.5521 19.7656 25.5934 16.7609 24.842C16.0683 24.6691 15.6851 24.5607 15.6661 24.5549L15.489 24.5301C12.7532 24.5301 10.5289 22.5556 10.5289 20.1293C10.5289 17.7031 12.7532 15.7294 15.489 15.7294C15.6603 15.7294 15.8299 15.7369 15.9954 15.7526L17.1887 15.8569L16.6119 14.8067C16.2909 14.2217 16.1278 13.6002 16.1278 12.9614C16.1278 12.9233 16.1312 12.8869 16.1336 12.8497L16.1535 12.5187C16.4084 10.3605 18.4995 8.67237 21.0325 8.67237ZM14.8891 13.5911C14.8924 13.6176 14.899 13.6449 14.9031 13.6722C14.9089 13.7144 14.918 13.7558 14.9246 13.798C14.9619 14.019 15.0107 14.2374 15.0777 14.4526C15.0786 14.4551 15.0786 14.4584 15.0794 14.4608C11.8289 14.6537 9.24953 17.1221 9.24953 20.1293C9.24953 23.2333 12.0002 25.7655 15.3996 25.8086C15.5552 25.8516 15.9168 25.9492 16.4522 26.0833C19.5231 26.8512 28.4628 28.8307 38.8895 28.8307C38.8912 28.8307 38.8912 28.8307 38.8928 28.8307C46.4232 28.8307 53.2577 27.8136 59.2125 25.8086C62.1609 25.768 65.4106 24.0708 65.4106 21.8092C65.4106 21.5311 65.3733 21.2589 65.3005 20.9941C65.0837 20.2005 64.5524 19.4806 63.7696 18.9236C64.5458 18.2335 64.9621 17.4126 64.9621 16.5445C64.9621 16.4825 64.9538 16.4212 64.9488 16.3592C64.9455 16.307 64.9455 16.2557 64.9389 16.2061C64.9306 16.1457 64.9165 16.0869 64.905 16.0282C64.8934 15.9719 64.8843 15.9164 64.8694 15.8602C64.8661 15.8469 64.8644 15.8337 64.8611 15.8196C67.2568 17.2372 68.5609 18.8094 68.5609 20.3817C68.5609 25.1524 56.0108 30.259 37.3288 30.259C18.6468 30.259 6.09752 25.1524 6.09752 20.3817C6.09752 17.9108 9.28843 15.4563 14.8891 13.5911ZM37.3288 46.7323C18.377 46.7323 2.35301 41.6654 2.21647 35.6494L5.51661 22.7344C8.58256 27.8236 21.4562 31.5391 37.3288 31.5391C53.1997 31.5391 66.0751 27.8236 69.1394 22.7327L72.4411 35.6486C72.3046 41.6654 56.2806 46.7323 37.3288 46.7323Z" fill="#124C5F"/>
<path fill-rule="evenodd" clip-rule="evenodd" d="M33.8164 37.4397C37.1737 35.1661 41.593 36.2779 43.6871 39.9231L43.5217 40.1979C43.1236 40.8299 42.6414 41.395 42.0904 41.8748C39.274 44.327 35.2736 44.0939 32.714 41.4888C32.3036 42.6376 31.2387 43.4127 30.0471 43.3188L29.9371 43.3077V43.1052C29.9371 41.8915 30.4265 40.7828 31.2195 40.0242C30.4823 39.4032 29.9968 38.4528 29.9423 37.3841L29.9371 37.1824V36.5385L30.0871 36.545C31.214 36.6243 32.1789 37.3744 32.6343 38.4412C32.9935 38.0646 33.39 37.7284 33.8164 37.4397ZM37.9246 43.578L38.0198 43.573C37.4923 44.1434 36.8455 44.5767 36.1095 44.8113C35.5376 44.9936 34.9621 45.0399 34.407 44.967C34.678 44.3694 34.8882 43.7304 35.0308 43.0647C35.9534 43.4509 36.9404 43.6244 37.9246 43.578ZM38.6309 36.2303L38.7059 36.3528C37.2877 36.1134 35.7978 36.333 34.439 37.0627C34.0237 36.1101 33.4668 35.2797 32.8107 34.6011C33.0938 34.4303 33.3969 34.2907 33.7169 34.1887C35.6056 33.5867 37.5346 34.4671 38.6309 36.2303Z" stroke="#124C5F" stroke-linecap="round"/>
<path fill-rule="evenodd" clip-rule="evenodd" d="M40.4305 39.1857V39.1072V39.1857Z" stroke="#124C5F" stroke-linecap="round" stroke-linejoin="round"/>
</svg>
