<svg width="50" height="47" viewBox="0 0 50 47" fill="none" xmlns="http://www.w3.org/2000/svg">
<path d="M25.8485 24.609C25.5004 28.7938 28.9905 29.7626 31.8187 33.6633C36.0277 39.2601 40.1945 38.2651 41.3776 34.7479C42.5038 31.3674 39.3965 28.4731 39.6928 24.7478C39.9892 21.0225 43.7138 18.0801 43.1901 14.6555C42.6664 11.231 38.6453 10.202 33.4288 15.7317C29.8943 19.555 26.3153 20.4735 25.8485 24.609Z" fill="#FFE55E"/>
<path d="M19.8025 13.3659C22.4306 15.7404 25.8491 15.8777 27.4076 13.7992C28.9661 11.7207 28.0867 8.14841 25.4018 5.91064C22.7736 3.53612 19.3552 3.39885 17.7967 5.47735C16.2949 7.4191 17.1743 10.9914 19.8025 13.3659Z" fill="#FFAA00"/>
<path d="M11.877 23.6952C15.4807 24.3905 18.993 22.9632 19.7167 20.2172C20.3835 17.6079 18.0444 14.8724 14.3221 14.1279C10.7184 13.4326 7.20606 14.8598 6.4824 17.6059C5.81556 20.2151 8.27325 22.9999 11.877 23.6952Z" fill="#FFAA00"/>
<path d="M12.4825 36.3385C16.0862 37.0337 19.5985 35.6065 20.3222 32.8605C20.989 30.2512 18.6499 27.5157 14.9276 26.7711C11.3238 26.0759 7.81155 27.5031 7.0879 30.2491C6.42105 32.8584 8.87874 35.6432 12.4825 36.3385Z" fill="#FFAA00"/>
</svg>
