<svg width="34" height="24" viewBox="0 0 34 24" fill="none" xmlns="http://www.w3.org/2000/svg">
<path fill-rule="evenodd" clip-rule="evenodd" d="M27.6316 15C27.6316 16.65 26.278 18 24.6235 18H3.56649C1.91201 18 0.55835 16.65 0.55835 15V3C0.55835 1.35 1.91201 0 3.56649 0H24.6235C26.278 0 27.6316 1.35 27.6316 3V15ZM3.56649 3V15H24.6235V3H3.56649ZM14.095 4.5C11.5982 4.5 9.58278 6.51 9.58278 9C9.58278 11.49 11.5982 13.5 14.095 13.5C16.5918 13.5 18.6072 11.49 18.6072 9C18.6072 6.51 16.5918 4.5 14.095 4.5ZM33.6479 21V4.5H30.6398V21H5.07056V24H30.6398C32.2943 24 33.6479 22.65 33.6479 21Z" fill="#FFA262"/>
</svg>
