<svg width="31" height="29" viewBox="0 0 31 29" fill="none" xmlns="http://www.w3.org/2000/svg">
<path fill-rule="evenodd" clip-rule="evenodd" d="M10.5909 0.5C12.6676 0.5 14.3511 2.17893 14.3511 4.25C14.3511 6.32107 12.6676 8 10.5909 8C8.51419 8 6.8307 6.32107 6.8307 4.25C6.8307 2.17893 8.51419 0.5 10.5909 0.5ZM3.82256 6.5C5.89925 6.5 7.58274 8.17893 7.58274 10.25C7.58274 12.3211 5.89925 14 3.82256 14C1.74587 14 0.0623779 12.3211 0.0623779 10.25C0.0623779 8.17893 1.74587 6.5 3.82256 6.5ZM14.8075 11.7512L15.1031 11.75C15.4942 11.75 15.9003 11.75 16.2763 11.81C16.4417 11.84 16.6072 11.885 16.7726 11.945C17.8255 12.305 18.7129 13.115 19.4047 13.925L20.6693 15.3967L23.1348 18.29L24.0499 19.2L24.581 19.7459L24.927 20.1193L25.2619 20.501C26.4642 21.9174 27.3606 23.5203 27.0605 25.49C26.6243 27.005 25.5263 28.535 23.556 28.97C23.308 29.0174 22.9374 29.0098 22.4692 28.9695L22.0445 28.9275L21.0659 28.8082L19.9382 28.6627L19.3272 28.588L18.6896 28.5161L18.0287 28.4503C17.2455 28.3782 16.4221 28.3249 15.5836 28.3127L14.9527 28.31C14.2307 28.31 13.5172 28.3432 12.828 28.395L12.1474 28.4525C12.0355 28.463 11.9245 28.4738 11.8143 28.485L11.1646 28.5552L10.5398 28.6298L8.60052 28.8794L8.13158 28.9341L7.70692 28.9756C7.23869 29.015 6.86806 29.0208 6.62013 28.97C4.6498 28.535 3.55182 27.02 3.11564 25.49C2.80116 23.3677 3.88217 21.6681 5.23329 20.1676L5.59114 19.7805L5.95681 19.4016L7.05631 18.305L8.32084 16.8333L10.1477 14.6883C10.3561 14.4438 10.5683 14.195 10.7864 13.94C11.4933 13.13 12.3657 12.32 13.4185 11.96C13.584 11.9 13.7494 11.855 13.9149 11.825C14.2082 11.7688 14.5099 11.7547 14.8075 11.7512ZM30.1438 10.25C30.1438 8.17893 28.4603 6.5 26.3836 6.5C24.3069 6.5 22.6235 8.17893 22.6235 10.25C22.6235 12.3211 24.3069 14 26.3836 14C28.4603 14 30.1438 12.3211 30.1438 10.25ZM23.3755 4.25C23.3755 2.17893 21.692 0.5 19.6153 0.5C17.5386 0.5 15.8551 2.17893 15.8551 4.25C15.8551 6.32107 17.5386 8 19.6153 8C21.692 8 23.3755 6.32107 23.3755 4.25Z" fill="#7E63FB"/>
</svg>
