<svg width="56" height="52" viewBox="0 0 56 52" fill="none" xmlns="http://www.w3.org/2000/svg">
<path d="M40.1768 25.2192C40.1445 25.5329 39.939 25.8759 39.4652 26.2245C34.8191 29.6429 30.1731 33.0612 25.5271 36.4795C24.5351 37.2093 22.1814 37.3792 22.1814 35.6621C22.1814 29.3369 22.1814 23.0117 22.1814 16.6865C22.1814 15.1327 24.7077 14.7498 25.7188 15.3824C30.3649 18.2893 35.0109 21.1962 39.6569 24.103C40.1889 24.4359 40.3057 24.8349 40.1768 25.2192ZM55.9736 30.6107C54.5013 63.3484 -4.99241 56.5663 1.46333 22.1041C4.17206 7.64391 17.1212 0.0391458 31.3488 0.95552C47.3638 1.98707 55.6823 15.4955 55.9723 30.3941C55.973 30.4316 55.9466 30.4628 55.9413 30.499C55.9472 30.5395 55.9756 30.5654 55.9736 30.6107ZM52.9882 31.0344C52.7465 20.4885 48.7135 9.09901 38.3074 4.56613C24.5154 -1.44157 8.26584 5.644 4.76093 20.2453C1.62606 33.3049 8.5975 44.8837 21.3533 49.0718C34.951 53.5364 52.2452 46.511 52.9882 31.0344Z" fill="white"/>
</svg>
