<svg width="38" height="32" viewBox="0 0 38 32" fill="none" xmlns="http://www.w3.org/2000/svg">
<path d="M28.099 18.5024C25.5424 15.5284 22.3108 13.8906 18.9994 13.8906C15.688 13.8906 12.4563 15.5284 9.89987 18.5024C7.60188 21.1756 6.22998 24.5445 6.22998 27.5144C6.22998 28.957 6.68775 30.0559 7.59053 30.7806C8.48158 31.4959 9.65799 31.7379 10.9704 31.7378C12.367 31.7378 13.9177 31.4638 15.4413 31.1945C16.7727 30.9592 18.0302 30.737 18.9995 30.737C19.836 30.737 21.0156 30.9479 22.2641 31.1712C25.1821 31.6932 28.4895 32.2847 30.4001 30.7542C31.3084 30.0267 31.7689 28.9366 31.7689 27.5144C31.769 24.5445 30.3971 21.1756 28.099 18.5024Z" fill="#FFAA00"/>
<path d="M28.3603 2.35294C27.4249 1.02419 26.0854 0.262177 24.6853 0.262177C23.2851 0.262177 21.9457 1.02426 21.0103 2.35294C20.151 3.57358 19.6777 5.17655 19.6777 6.86661C19.6777 8.55667 20.1509 10.1596 21.0103 11.3803C21.9457 12.709 23.2852 13.4711 24.6853 13.4711C26.0855 13.4711 27.4249 12.709 28.3603 11.3803C29.2196 10.1596 29.6929 8.55667 29.6929 6.86661C29.6929 5.17655 29.2197 3.57351 28.3603 2.35294Z" fill="#FFAA00"/>
<path d="M37.779 12.7196C37.4019 11.4837 36.5936 10.5857 35.5031 10.1911C34.6256 9.87353 33.635 9.92737 32.7138 10.3427C31.4443 10.915 30.4067 12.0969 29.8671 13.5851C29.4262 14.8012 29.3712 16.0866 29.7124 17.2047C30.0895 18.4406 30.8978 19.3386 31.9883 19.7332C32.3657 19.8698 32.7639 19.9377 33.1685 19.9377C33.7049 19.9377 34.2526 19.8183 34.7777 19.5816C36.0472 19.0093 37.0848 17.8275 37.6244 16.3393V16.3392C38.0652 15.1232 38.1202 13.8377 37.779 12.7196Z" fill="#FFAA00"/>
<path d="M16.9887 2.35294C16.0533 1.02419 14.7139 0.262177 13.3137 0.262177C11.9135 0.262177 10.5741 1.02426 9.63872 2.35294C8.77943 3.57358 8.30615 5.17655 8.30615 6.86661C8.30615 8.55667 8.77936 10.1596 9.63872 11.3803C10.5742 12.709 11.9135 13.4711 13.3137 13.4711C14.7139 13.4711 16.0533 12.709 16.9887 11.3803C17.848 10.1596 18.3213 8.55675 18.3213 6.86661C18.3212 5.17655 17.848 3.57351 16.9887 2.35294Z" fill="#FFAA00"/>
<path d="M8.13317 13.585C7.59354 12.0968 6.55591 10.915 5.2865 10.3427C4.36525 9.92734 3.3746 9.87357 2.49713 10.191C1.40658 10.5857 0.598283 11.4838 0.221186 12.7196C-0.11999 13.8377 -0.0649951 15.1232 0.375929 16.3392V16.3393C0.915635 17.8275 1.95319 19.0092 3.2226 19.5816C3.74776 19.8183 4.29541 19.9376 4.83177 19.9376C5.23641 19.9376 5.63465 19.8697 6.01197 19.7332C7.10267 19.3385 7.91089 18.4405 8.28799 17.2047C8.62902 16.0867 8.57402 14.8012 8.13317 13.585Z" fill="#FFAA00"/>
</svg>
