<svg width="159" height="113" viewBox="0 0 159 113" fill="none" xmlns="http://www.w3.org/2000/svg">
<path d="M7.96 99.15C7.22 99.15 6.69 98.99 6.37 98.67C6.05 98.33 5.89 97.7 5.89 96.78C5.89 96.16 5.95 95.37 6.07 94.41C6.21 93.43 6.43 92.09 6.73 90.39C7.25 87.25 7.66 84.53 7.96 82.23C8.14 80.79 8.23 79.59 8.23 78.63C8.23 77.73 7.9 77.28 7.24 77.28C6.72 77.28 6.09 77.55 5.35 78.09C4.63 78.61 3.83 79.45 2.95 80.61C2.67 80.99 2.36 81.18 2.02 81.18C1.74 81.18 1.49 81.05 1.27 80.79C1.07 80.51 0.97 80.2 0.97 79.86C0.97 79.54 1.03 79.22 1.15 78.9C1.29 78.56 1.51 78.18 1.81 77.76C2.77 76.42 3.84 75.39 5.02 74.67C6.2 73.93 7.38 73.56 8.56 73.56C9.66 73.56 10.5 73.91 11.08 74.61C11.68 75.31 11.98 76.33 11.98 77.67C11.98 78.21 11.93 78.85 11.83 79.59C11.73 80.31 11.64 80.9 11.56 81.36C11.48 81.82 11.42 82.14 11.38 82.32C12.52 79.06 13.8 76.79 15.22 75.51C16.64 74.21 18.2 73.56 19.9 73.56C21.2 73.56 22.22 74.02 22.96 74.94C23.72 75.86 24.1 77.16 24.1 78.84C24.1 79.5 24.01 80.32 23.83 81.3C24.83 78.54 26 76.56 27.34 75.36C28.68 74.16 30.22 73.56 31.96 73.56C33.36 73.56 34.43 74.01 35.17 74.91C35.93 75.81 36.31 77.07 36.31 78.69C36.31 79.57 36.18 80.64 35.92 81.9L34.09 90.48C33.89 91.48 33.79 92.34 33.79 93.06C33.79 93.9 33.98 94.53 34.36 94.95C34.76 95.37 35.31 95.58 36.01 95.58C36.67 95.58 37.31 95.36 37.93 94.92C38.57 94.48 39.32 93.75 40.18 92.73C40.42 92.45 40.69 92.31 40.99 92.31C41.25 92.31 41.45 92.43 41.59 92.67C41.75 92.91 41.83 93.24 41.83 93.66C41.83 94.44 41.64 95.06 41.26 95.52C40.22 96.78 39.19 97.7 38.17 98.28C37.15 98.86 36.08 99.15 34.96 99.15C33.26 99.15 31.93 98.65 30.97 97.65C30.01 96.63 29.53 95.27 29.53 93.57C29.53 92.39 29.77 90.68 30.25 88.44L31.45 82.95C31.49 82.77 31.56 82.45 31.66 81.99C31.76 81.53 31.84 81.1 31.9 80.7C31.96 80.28 31.99 79.87 31.99 79.47C31.99 78.77 31.85 78.25 31.57 77.91C31.31 77.55 30.93 77.37 30.43 77.37C29.49 77.37 28.5 77.98 27.46 79.2C26.44 80.4 25.46 82.4 24.52 85.2C23.6 88 22.85 91.64 22.27 96.12C22.13 97.32 21.88 98.13 21.52 98.55C21.18 98.95 20.62 99.15 19.84 99.15C19.16 99.15 18.66 98.99 18.34 98.67C18.04 98.35 17.89 97.75 17.89 96.87C17.89 96.05 18 94.98 18.22 93.66C18.44 92.32 18.72 90.75 19.06 88.95C19.98 84.11 20.44 80.99 20.44 79.59C20.44 78.83 20.29 78.27 19.99 77.91C19.71 77.55 19.28 77.37 18.7 77.37C17.72 77.37 16.71 77.93 15.67 79.05C14.63 80.15 13.61 82.12 12.61 84.96C11.63 87.78 10.81 91.6 10.15 96.42C10.01 97.44 9.8 98.15 9.52 98.55C9.26 98.95 8.74 99.15 7.96 99.15ZM46.9727 99.15C45.5927 99.15 44.3427 98.81 43.2227 98.13C42.1227 97.45 41.2527 96.47 40.6127 95.19C39.9727 93.89 39.6527 92.36 39.6527 90.6C39.6527 87.56 40.3027 84.75 41.6027 82.17C42.9027 79.57 44.8227 77.49 47.3627 75.93C49.9027 74.35 52.9527 73.56 56.5127 73.56C57.4327 73.56 58.4127 73.63 59.4527 73.77C60.5127 73.91 61.4727 74.12 62.3327 74.4C62.8927 74.56 63.1727 74.96 63.1727 75.6C63.1727 76.12 62.9727 76.61 62.5727 77.07C62.1927 77.53 61.7427 77.76 61.2227 77.76C61.0627 77.76 60.9427 77.75 60.8627 77.73C59.8227 77.49 58.9327 77.32 58.1927 77.22C57.4527 77.1 56.6727 77.04 55.8527 77.04C53.3127 77.04 51.1527 77.66 49.3727 78.9C47.5927 80.12 46.2627 81.74 45.3827 83.76C44.5027 85.78 44.0627 87.96 44.0627 90.3C44.0627 92 44.3927 93.32 45.0527 94.26C45.7327 95.18 46.6127 95.64 47.6927 95.64C48.9127 95.64 49.9827 95.14 50.9027 94.14C51.8227 93.14 52.6627 91.52 53.4227 89.28C54.1827 87.04 54.9327 84 55.6727 80.16C55.7927 79.6 56.0327 79.22 56.3927 79.02C56.7527 78.82 57.2327 78.72 57.8327 78.72C59.2527 78.72 59.9627 79.18 59.9627 80.1C59.9627 80.26 59.9327 80.46 59.8727 80.7C59.3527 82.64 58.8727 84.79 58.4327 87.15C58.0127 89.49 57.8027 91.27 57.8027 92.49C57.8027 93.57 57.9627 94.36 58.2827 94.86C58.6027 95.34 59.0927 95.58 59.7527 95.58C60.3927 95.58 61.0027 95.37 61.5827 94.95C62.1627 94.51 62.8927 93.77 63.7727 92.73C64.0127 92.45 64.2827 92.31 64.5827 92.31C64.8427 92.31 65.0427 92.43 65.1827 92.67C65.3427 92.91 65.4227 93.24 65.4227 93.66C65.4227 94.44 65.2327 95.06 64.8527 95.52C63.8727 96.7 62.9127 97.6 61.9727 98.22C61.0327 98.84 59.8827 99.15 58.5227 99.15C57.1227 99.15 55.9927 98.75 55.1327 97.95C54.2727 97.13 53.7327 95.98 53.5127 94.5C52.0327 97.6 49.8527 99.15 46.9727 99.15ZM90.9866 92.31C91.2466 92.31 91.4466 92.43 91.5866 92.67C91.7466 92.91 91.8266 93.24 91.8266 93.66C91.8266 94.44 91.6366 95.06 91.2566 95.52C90.2966 96.68 89.3266 97.58 88.3466 98.22C87.3666 98.84 86.2066 99.15 84.8666 99.15C83.5666 99.15 82.4566 98.8 81.5366 98.1C80.6366 97.4 79.7766 96.2 78.9566 94.5C78.2966 93.14 77.7766 92.14 77.3966 91.5C77.0166 90.84 76.6366 90.37 76.2566 90.09C75.8966 89.81 75.4466 89.64 74.9066 89.58C74.8266 90 74.5966 91.32 74.2166 93.54C74.0566 94.54 73.9566 95.15 73.9166 95.37C73.7166 96.59 73.3166 97.53 72.7166 98.19C72.1166 98.83 71.2066 99.15 69.9866 99.15C68.6466 99.15 67.4566 98.76 66.4166 97.98C65.3966 97.18 64.6066 96.08 64.0466 94.68C63.4866 93.26 63.2066 91.65 63.2066 89.85C63.2066 86.49 63.7866 83.59 64.9466 81.15C66.1266 78.71 67.7666 76.85 69.8666 75.57C71.9866 74.27 74.4266 73.62 77.1866 73.62C79.1066 73.62 80.7166 73.91 82.0166 74.49C83.3166 75.07 84.2766 75.87 84.8966 76.89C85.5366 77.91 85.8566 79.06 85.8566 80.34C85.8566 81.46 85.5866 82.56 85.0466 83.64C84.5266 84.7 83.7366 85.64 82.6766 86.46C81.6166 87.28 80.3266 87.89 78.8066 88.29C79.7666 88.55 80.5066 88.97 81.0266 89.55C81.5466 90.13 82.0666 90.98 82.5866 92.1C83.1466 93.3 83.6966 94.18 84.2366 94.74C84.7966 95.3 85.4366 95.58 86.1566 95.58C86.7966 95.58 87.4066 95.37 87.9866 94.95C88.5666 94.51 89.2966 93.77 90.1766 92.73C90.4166 92.45 90.6866 92.31 90.9866 92.31ZM70.7666 89.55C70.0866 89.55 69.6166 89.39 69.3566 89.07C69.1166 88.75 68.9966 88.39 68.9966 87.99C68.9966 87.51 69.1466 87.13 69.4466 86.85C69.7666 86.57 70.1266 86.43 70.5266 86.43H71.2766C71.5966 84.47 71.8966 82.78 72.1766 81.36C72.4366 80.06 73.2766 79.41 74.6966 79.41C75.8366 79.41 76.4066 79.92 76.4066 80.94C76.4066 81.16 76.3966 81.33 76.3766 81.45L75.4766 86.43C76.5566 86.37 77.5366 86.11 78.4166 85.65C79.3166 85.19 80.0266 84.55 80.5466 83.73C81.0866 82.91 81.3566 81.98 81.3566 80.94C81.3566 79.68 80.9266 78.69 80.0666 77.97C79.2066 77.25 77.9466 76.89 76.2866 76.89C74.3266 76.89 72.6066 77.38 71.1266 78.36C69.6666 79.32 68.5266 80.76 67.7066 82.68C66.8866 84.58 66.4766 86.9 66.4766 89.64C66.4766 90.92 66.6066 92.02 66.8666 92.94C67.1266 93.86 67.4466 94.55 67.8266 95.01C68.2066 95.47 68.5666 95.7 68.9066 95.7C69.1666 95.7 69.3766 95.57 69.5366 95.31C69.7166 95.05 69.8566 94.63 69.9566 94.05L70.7666 89.55Z" fill="#FFAA00"/>
<path d="M113.873 86.04C114.333 86.04 114.663 86.14 114.863 86.34C115.083 86.54 115.193 86.8 115.193 87.12C115.193 87.64 115.033 88.1 114.713 88.5C114.413 88.9 113.933 89.11 113.273 89.13C111.673 89.17 110.253 89.05 109.013 88.77C107.593 91.75 105.873 94.23 103.853 96.21C101.853 98.17 99.8431 99.15 97.8231 99.15C95.7431 99.15 94.1931 97.94 93.1731 95.52C92.1531 93.1 91.6431 89.83 91.6431 85.71C91.6431 82.19 91.8931 79.03 92.3931 76.23C92.5731 75.19 92.8231 74.49 93.1431 74.13C93.4831 73.75 94.0531 73.56 94.8531 73.56C96.1731 73.56 96.8331 74.13 96.8331 75.27C96.8331 75.39 96.8131 75.61 96.7731 75.93C96.1731 79.53 95.8731 82.79 95.8731 85.71C95.8731 88.77 96.1231 91.1 96.6231 92.7C97.1431 94.28 97.9131 95.07 98.9331 95.07C99.9731 95.07 101.103 94.35 102.323 92.91C103.543 91.47 104.663 89.66 105.683 87.48C104.463 86.72 103.543 85.74 102.923 84.54C102.303 83.32 101.993 81.92 101.993 80.34C101.993 78.76 102.233 77.43 102.713 76.35C103.213 75.25 103.883 74.43 104.723 73.89C105.583 73.35 106.533 73.08 107.573 73.08C108.853 73.08 109.863 73.54 110.603 74.46C111.363 75.38 111.743 76.64 111.743 78.24C111.743 80.54 111.243 83.05 110.243 85.77C111.303 85.95 112.513 86.04 113.873 86.04ZM105.023 80.13C105.023 82.09 105.653 83.54 106.913 84.48C107.693 82.24 108.083 80.39 108.083 78.93C108.083 78.09 107.973 77.48 107.753 77.1C107.533 76.7 107.233 76.5 106.853 76.5C106.313 76.5 105.873 76.82 105.533 77.46C105.193 78.08 105.023 78.97 105.023 80.13ZM133.484 93.54C133.784 93.42 134.034 93.36 134.234 93.36C134.554 93.36 134.794 93.48 134.954 93.72C135.114 93.96 135.194 94.27 135.194 94.65C135.194 95.25 135.044 95.76 134.744 96.18C134.464 96.6 133.974 96.98 133.274 97.32C132.094 97.88 130.564 98.33 128.684 98.67C126.804 98.99 124.954 99.15 123.134 99.15C120.614 99.15 118.504 98.87 116.804 98.31C115.104 97.73 113.834 96.94 112.994 95.94C112.174 94.94 111.764 93.81 111.764 92.55C111.764 90.83 112.314 89.37 113.414 88.17C114.534 86.95 116.174 86.07 118.334 85.53C117.154 85.19 116.244 84.59 115.604 83.73C114.984 82.87 114.674 81.91 114.674 80.85C114.674 79.41 115.124 78.14 116.024 77.04C116.944 75.92 118.174 75.06 119.714 74.46C121.254 73.86 122.944 73.56 124.784 73.56C127.264 73.56 129.124 74.1 130.364 75.18C131.604 76.24 132.224 77.62 132.224 79.32C132.224 80.5 132.004 81.46 131.564 82.2C131.144 82.92 130.534 83.28 129.734 83.28C129.174 83.28 128.734 83.16 128.414 82.92C128.094 82.66 127.934 82.28 127.934 81.78C127.934 81.44 127.984 81.07 128.084 80.67C128.184 80.01 128.234 79.56 128.234 79.32C128.234 78.6 127.964 78.02 127.424 77.58C126.884 77.12 125.984 76.89 124.724 76.89C123.024 76.89 121.664 77.25 120.644 77.97C119.624 78.69 119.114 79.66 119.114 80.88C119.114 81.82 119.494 82.6 120.254 83.22C121.034 83.82 122.294 84.15 124.034 84.21C124.474 84.23 124.784 84.33 124.964 84.51C125.144 84.69 125.234 84.99 125.234 85.41C125.234 86.73 124.634 87.4 123.434 87.42C121.774 87.46 120.394 87.69 119.294 88.11C118.214 88.53 117.424 89.07 116.924 89.73C116.444 90.37 116.204 91.06 116.204 91.8C116.204 93.04 116.784 93.98 117.944 94.62C119.104 95.24 120.944 95.55 123.464 95.55C125.124 95.55 126.874 95.36 128.714 94.98C130.574 94.58 132.164 94.1 133.484 93.54ZM156.63 74.1C157.25 74.22 157.71 74.43 158.01 74.73C158.33 75.03 158.49 75.38 158.49 75.78C158.49 76.44 158.3 76.92 157.92 77.22C157.56 77.52 156.98 77.64 156.18 77.58C154.38 77.44 152.97 77.35 151.95 77.31C150.95 77.25 149.63 77.21 147.99 77.19C147.25 80.87 146.57 84.57 145.95 88.29C145.73 89.65 145.5 91.23 145.26 93.03C145.02 94.81 144.86 96.25 144.78 97.35C144.74 97.93 144.5 98.38 144.06 98.7C143.62 99 143.09 99.15 142.47 99.15C141.81 99.15 141.3 98.99 140.94 98.67C140.58 98.35 140.4 97.93 140.4 97.41C140.4 96.93 140.47 96.14 140.61 95.04C140.77 93.92 140.95 92.75 141.15 91.53C141.37 90.31 141.54 89.25 141.66 88.35C141.88 86.83 142.13 85.32 142.41 83.82C142.69 82.32 142.97 80.9 143.25 79.56C143.31 79.26 143.38 78.92 143.46 78.54C143.54 78.14 143.63 77.7 143.73 77.22C141.77 77.28 140.23 77.44 139.11 77.7C137.99 77.96 137.19 78.33 136.71 78.81C136.25 79.27 136.02 79.87 136.02 80.61C136.02 81.29 136.22 81.94 136.62 82.56C136.7 82.7 136.74 82.85 136.74 83.01C136.74 83.39 136.51 83.75 136.05 84.09C135.61 84.41 135.15 84.57 134.67 84.57C134.33 84.57 134.05 84.47 133.83 84.27C133.43 83.93 133.1 83.45 132.84 82.83C132.58 82.19 132.45 81.47 132.45 80.67C132.45 78.97 133 77.61 134.1 76.59C135.22 75.55 136.91 74.79 139.17 74.31C141.45 73.83 144.37 73.59 147.93 73.59C150.13 73.59 151.88 73.63 153.18 73.71C154.5 73.79 155.65 73.92 156.63 74.1Z" fill="#FFE55E"/>
<path d="M77.2952 24.6087C76.947 28.7935 80.4371 29.7623 83.2654 33.6631C87.4744 39.2599 91.6412 38.2649 92.8243 34.7476C93.9505 31.3671 90.8432 28.4728 91.1395 24.7475C91.4358 21.0223 95.1605 18.0798 94.6368 14.6553C94.1131 11.2307 90.0919 10.2017 84.8754 15.7315C81.341 19.5547 77.762 20.4732 77.2952 24.6087Z" fill="#FFE55E"/>
<path d="M71.2491 13.3655C73.8772 15.74 77.2957 15.8772 78.8542 13.7987C80.4127 11.7202 79.5333 8.14799 76.8484 5.91021C74.2203 3.53569 70.8018 3.39842 69.2433 5.47692C67.7416 7.41867 68.621 10.9909 71.2491 13.3655Z" fill="#FFAA00"/>
<path d="M63.3237 23.6948C66.9274 24.3901 70.4397 22.9628 71.1634 20.2168C71.8302 17.6076 69.4911 14.872 65.7688 14.1275C62.165 13.4322 58.6527 14.8595 57.9291 17.6055C57.2622 20.2148 59.7199 22.9996 63.3237 23.6948Z" fill="#FFAA00"/>
<path d="M63.9291 36.3384C67.5329 37.0336 71.0452 35.6064 71.7688 32.8604C72.4357 30.2511 70.0965 27.5156 66.3742 26.7711C62.7705 26.0758 59.2582 27.503 58.5346 30.2491C57.8677 32.8583 60.3254 35.6431 63.9291 36.3384Z" fill="#FFAA00"/>
</svg>
