<svg width="421" height="487" viewBox="0 0 421 487" fill="none" xmlns="http://www.w3.org/2000/svg">
<path d="M334.73 298.119C296.948 297.232 261.793 316.36 240.695 349.291C219.597 382.221 215.964 423.633 230.975 460.062L267.14 547.852C273.138 562.417 283.23 574.314 296.312 582.253C309.397 590.194 324.248 593.429 339.265 591.615C354.277 589.789 368.037 583.08 379.057 572.215C390.078 561.35 397.318 547.344 399.998 531.717L400.174 530.668C407.171 491.526 429.502 456.931 461.565 435.622C469.835 430.125 476.787 423.021 482.135 414.674C485.043 410.136 487.477 405.224 489.394 400.007C494.829 385.193 495.565 369.277 491.522 353.976C487.477 338.683 479.032 325.445 467.101 315.697C455.169 305.949 440.879 300.611 425.77 300.253L334.73 298.119Z" fill="#094067" fill-opacity="0.02"/>
<path d="M210.844 491.289C214.348 475.255 210.775 458.666 200.782 444.579C191.273 431.172 176.969 421.608 160.499 417.648C144.036 413.698 127.198 415.779 113.082 423.506C98.2564 431.624 88.1673 444.925 84.6854 460.944C77.6568 493.155 100.238 526.181 135.039 534.57C162.759 541.215 189.972 530.247 203.439 509.229C206.877 503.862 209.419 497.839 210.844 491.289Z" fill="#094067" fill-opacity="0.02"/>
<path d="M214.253 372.96C234.749 340.97 223.195 294.988 188.497 270.459C153.791 245.924 108.881 251.991 88.3855 283.982C67.8915 315.969 79.4527 361.952 114.159 386.487C148.857 411.016 193.759 404.948 214.253 372.96Z" fill="#094067" fill-opacity="0.02"/>
<path d="M293.908 283.693L293.91 283.69C298.618 279.868 302.577 275.373 305.78 270.374C320.727 247.044 319.129 212.88 299.843 186.642C288.744 171.536 273.412 161.175 256.675 157.469C239.156 153.587 222.213 157.366 208.962 168.113C195.71 178.863 187.944 195.129 187.088 213.914C186.269 231.86 191.935 250.06 203.039 265.159C226.459 297.018 267.223 305.332 293.908 283.693Z" fill="#094067" fill-opacity="0.02"/>
<path d="M364.842 156.33L364.828 156.333C335.179 167.427 320.765 205.174 332.7 240.49C344.659 275.795 378.506 295.524 408.145 284.471C418.958 280.443 427.747 272.865 433.972 263.15C444.82 246.217 447.879 222.785 440.294 200.313C428.334 165.01 394.489 145.279 364.842 156.33Z" fill="#094067" fill-opacity="0.02"/>
</svg>
