<svg width="229" height="265" viewBox="0 0 229 265" fill="none" xmlns="http://www.w3.org/2000/svg">
<path d="M156.325 122.958C139.206 122.53 123.277 131.749 113.717 147.621C104.157 163.492 102.511 183.451 109.313 201.009L125.699 243.32C128.417 250.34 132.99 256.074 138.918 259.901C144.847 263.728 151.575 265.287 158.38 264.412C165.182 263.532 171.417 260.299 176.41 255.062C181.404 249.826 184.684 243.075 185.899 235.544L185.979 235.038C189.149 216.173 199.267 199.5 213.795 189.23C217.542 186.58 220.693 183.156 223.116 179.133C224.433 176.946 225.536 174.578 226.405 172.064C228.868 164.925 229.201 157.254 227.369 149.879C225.536 142.508 221.71 136.128 216.304 131.43C210.897 126.732 204.422 124.159 197.576 123.986L156.325 122.958Z" fill="#094067" fill-opacity="0.02"/>
<path d="M100.191 216.059C101.779 208.331 100.16 200.336 95.6318 193.546C91.3236 187.084 84.8423 182.475 77.3796 180.566C69.92 178.663 62.2904 179.665 55.8943 183.389C49.1767 187.302 44.6053 193.713 43.0276 201.433C39.8428 216.958 50.0745 232.875 65.8434 236.918C78.4036 240.121 90.7341 234.835 96.8359 224.705C98.3939 222.118 99.5455 219.215 100.191 216.059Z" fill="#094067" fill-opacity="0.02"/>
<path d="M101.736 159.029C111.023 143.61 105.788 121.448 90.0663 109.626C74.3405 97.8016 53.9915 100.726 44.7046 116.144C35.4186 131.561 40.6571 153.723 56.3829 165.548C72.1048 177.37 92.4502 174.445 101.736 159.029Z" fill="#094067" fill-opacity="0.02"/>
<path d="M137.828 116.005L137.829 116.004C139.962 114.162 141.756 111.995 143.208 109.586C149.98 98.3415 149.256 81.8757 140.518 69.2299C135.488 61.9494 128.541 56.9557 120.958 55.1697C113.02 53.2986 105.343 55.1203 99.3388 60.2998C93.3342 65.4809 89.8153 73.3203 89.427 82.3742C89.056 91.0233 91.6234 99.795 96.6546 107.073C107.267 122.427 125.737 126.434 137.828 116.005V116.005Z" fill="#094067" fill-opacity="0.02"/>
<path d="M169.97 54.621L169.963 54.6224C156.529 59.9692 149.998 78.1622 155.406 95.183C160.824 112.199 176.161 121.707 189.59 116.381C194.49 114.439 198.473 110.787 201.293 106.104C206.209 97.9436 207.595 86.6499 204.158 75.8191C198.738 58.8045 183.403 49.2946 169.97 54.621V54.621Z" fill="#094067" fill-opacity="0.02"/>
</svg>
