<svg width="94" height="93" viewBox="0 0 94 93" fill="none" xmlns="http://www.w3.org/2000/svg">
<path d="M65.6199 40.5259C73.9761 47.2109 83.1678 33.0054 81.4966 24.6492C86.5103 9.60815 69.798 3.75884 63.9487 17.9643C56.4281 23.8136 55.5925 40.5259 65.6199 40.5259ZM66.4555 38.0191C57.2637 38.8547 60.6062 23.8136 65.6199 19.6355V18.7999C70.6336 6.26569 83.1678 11.2794 78.1541 23.8136V24.6492C79.8254 31.3342 73.1404 44.704 65.6199 38.0191H66.4555Z" fill="#124C5F"/>
<path d="M38.0446 30.4985C46.4007 37.1834 55.5925 22.9779 53.9213 14.6218C58.935 -0.419287 42.2227 -6.2686 36.3734 8.77248C28.8528 14.6218 28.0172 31.3341 38.0446 31.3341V30.4985ZM38.8802 27.9916C29.6884 28.8273 33.0309 13.7862 38.0446 9.6081V8.77248C43.0583 -3.76175 55.5925 1.25194 50.5788 13.7862V14.6218C52.2501 21.3067 45.5651 34.6766 38.0446 27.9916H38.8802Z" fill="#124C5F"/>
<path d="M79.8253 68.9367C87.3458 73.9504 96.5376 66.4299 93.1951 58.0737C96.5376 47.2107 80.6609 41.3614 75.6472 52.2244C68.1266 56.4025 70.6335 68.1011 78.9896 68.9367H79.8253ZM80.6609 66.4299H79.8253C73.1403 65.5943 71.4691 56.4025 77.3184 53.8956L78.154 53.06C81.4965 44.7039 94.0307 49.7176 90.6883 58.0737V58.9093C93.1951 64.7586 86.5102 71.4436 80.6609 67.2655V66.4299Z" fill="#124C5F"/>
<path d="M9.63361 43.8684C17.1542 48.882 26.3459 41.3615 23.0035 33.0054C26.3459 22.1424 10.4692 16.293 5.45553 27.156C-2.06501 31.3341 0.441838 43.0327 8.79799 43.8684H9.63361ZM10.4692 41.3615H9.63361C2.94868 40.5259 1.27745 31.3341 7.12676 28.8273L7.96238 27.9917C11.3048 19.6355 23.8391 24.6492 20.4966 33.0054V33.841C23.0035 39.6903 16.3185 46.3752 10.4692 42.1971V41.3615Z" fill="#124C5F"/>
<path d="M66.4553 66.43C74.8114 40.5259 31.3594 24.6492 21.332 49.7177C-4.57205 63.9231 12.9759 81.4711 32.195 88.9916C51.4142 95.6765 77.3183 94.0053 66.4553 66.43ZM63.9484 66.43V67.2656C73.9758 92.3341 50.5786 94.0053 33.0307 87.3204C15.4827 80.6354 -2.0652 65.5944 22.1677 52.2245L23.0033 51.3889C32.195 27.9917 71.469 43.0327 63.9484 66.43Z" fill="#124C5F"/>
</svg>
